<svg width="440" height="124" viewBox="0 0 440 124" fill="none" xmlns="http://www.w3.org/2000/svg">
<path d="M0 97.0682L15.3581 5.052L41.4398 5.11332C49.1129 5.11332 55.8166 7.21016 61.5508 11.4039C67.2732 15.5976 71.3403 21.3118 73.7404 28.5588C75.8094 34.9229 76.436 41.7898 75.632 49.1594L75.2064 53.0098C74.1069 61.2623 71.4703 68.7423 67.285 75.4498C63.0996 82.145 57.7201 87.4055 51.1347 91.2191C44.5493 95.0327 37.4436 96.9824 29.8059 97.0682H0ZM33.4001 22.1211L23.717 79.9501L29.8059 80.0114C36.9589 80.0114 42.693 77.142 47.0203 71.4155C51.3475 65.689 53.9131 56.9215 54.7289 45.1252L54.8471 43.0406C55.1309 36.2963 54.1141 31.1829 51.7968 27.6882C49.4795 24.1934 46.0035 22.3541 41.3807 22.1947L33.4001 22.1211Z" fill="#9966FF"/>
<path d="M110.721 98.3314C104.833 98.2946 99.5836 96.8476 94.9726 94.0028C90.3616 91.1579 86.8738 87.1972 84.521 82.1206C82.1682 77.044 81.2342 71.4524 81.7189 65.3458L81.8963 63.58C82.9958 52.3355 86.7555 43.4331 93.1991 36.8851C99.6427 30.337 107.529 27.1856 116.869 27.4431C122.52 27.5289 127.344 29.0127 131.376 31.9066C135.396 34.8005 138.34 38.7857 140.208 43.8623C142.076 48.9511 142.69 54.6531 142.04 60.9804L140.881 69.6499H101.641C101.724 73.2305 102.693 76.1366 104.561 78.3684C106.429 80.6001 109.148 81.7773 112.731 81.9122C118.536 82.0839 123.762 79.7663 128.385 74.9594L136.791 86.4983C134.308 90.1524 130.856 93.0218 126.398 95.1064C121.953 97.191 117.082 98.2701 111.809 98.3559H110.721V98.3314ZM115.592 43.85C112.743 43.7642 110.283 44.6839 108.191 46.6213C106.098 48.5465 104.277 51.7837 102.74 56.3085H122.792L123.159 54.4814C123.407 53.0099 123.442 51.6366 123.277 50.3368C122.579 46.1431 120.014 43.9849 115.592 43.85Z" fill="#9966FF"/>
<path d="M147.884 62.746C148.652 55.8791 150.473 49.6621 153.334 44.1073C156.195 38.5402 159.778 34.3465 164.093 31.5016C168.397 28.6568 173.268 27.2834 178.718 27.357C185.339 27.5286 190.34 29.9934 193.71 34.7511L195.838 28.62L214.365 28.6813L203.582 94.4072C202.364 103.678 198.439 110.986 191.818 116.332C185.197 121.679 176.956 124.229 167.084 123.984C162.698 123.898 158.453 122.991 154.351 121.262C150.248 119.533 146.737 116.921 143.805 113.426L153.31 101.164C156.846 105.799 161.433 108.178 167.084 108.3C175.975 108.472 181.627 103.555 184.027 93.5734L184.511 91.4888C179.96 96.1239 174.947 98.3924 169.461 98.3189C165.24 98.2821 161.516 97.1662 158.312 94.9958C155.108 92.8254 152.589 89.6985 150.757 85.6151C148.924 81.5318 147.895 76.9825 147.647 71.9672C147.482 69.4534 147.564 66.3756 147.884 62.746ZM167.687 69.5147C167.687 73.3896 168.361 76.4062 169.697 78.5521C171.033 80.698 172.984 81.8138 175.55 81.8997C179.333 82.0713 182.762 80.5508 185.847 77.3504L191.026 48.3378C189.406 45.3948 186.675 43.8743 182.856 43.7885C178.955 43.7026 175.691 45.4193 173.043 48.9386C170.407 52.4579 168.739 57.0808 168.042 62.8073C167.817 65.4682 167.687 67.6999 167.687 69.5147Z" fill="#9966FF"/>
<path d="M253.179 27.4187C259.067 27.5046 264.163 29.0251 268.478 32.0048C272.782 34.9723 275.939 39.117 277.949 44.4265C279.959 49.7361 280.68 55.6343 280.112 62.121L279.994 63.5067C278.859 74.0032 275.099 82.4641 268.727 88.9141C262.354 95.3641 254.468 98.5032 245.081 98.3315C239.228 98.2457 234.168 96.7375 229.912 93.819C225.644 90.8883 222.487 86.7928 220.441 81.5322C218.384 76.2717 217.651 70.4103 218.219 63.9604C219.235 52.7526 222.936 43.8257 229.344 37.1672C235.717 30.4966 243.674 27.2593 253.179 27.4187ZM238.247 63.9849L238.07 67.7126C237.502 77.0933 240.269 81.8633 246.357 82.035C254.243 82.2925 258.807 75.6586 260.072 62.1578L260.321 56.4191C260.403 52.63 259.718 49.6135 258.275 47.3695C256.833 45.1255 254.716 43.9483 251.902 43.8625C248.202 43.7399 245.175 45.2971 242.799 48.5589C240.411 51.8207 238.897 56.9586 238.247 63.9849Z" fill="#9966FF"/>
<path d="M320.509 77.4735C321.041 74.69 318.96 72.6054 314.29 71.2198L309.963 70.0794C302.892 68.1419 297.714 65.4197 294.427 61.925C291.14 58.4302 289.592 54.2733 289.792 49.4787C289.993 42.9061 292.807 37.5721 298.234 33.4642C303.661 29.3563 310.27 27.3453 318.073 27.4311C325.829 27.517 332.119 29.5648 336.931 33.5623C341.743 37.5598 344.19 42.9552 344.273 49.7362L324.292 49.6749C324.458 44.2795 322.164 41.5818 317.411 41.5818C315.378 41.5818 313.486 42.2072 311.748 43.4457C309.998 44.6842 308.969 46.3396 308.638 48.4119C307.953 51.8208 310.849 54.1629 317.352 55.426C323.003 56.8116 327.366 58.4302 330.452 60.2573C333.538 62.0844 335.89 64.3529 337.522 67.0506C339.142 69.7483 339.899 72.9855 339.78 76.7868C339.662 80.9192 338.361 84.5979 335.879 87.8475C333.396 91.097 329.813 93.6843 325.12 95.6217C320.426 97.5592 315.342 98.4666 309.856 98.344C305.103 98.3072 300.681 97.2649 296.603 95.2416C292.524 93.2183 289.331 90.4716 287.038 86.9891C284.744 83.5189 283.55 79.5214 283.479 75.0088L302.124 75.1315C302.207 81.2013 305.127 84.1933 310.897 84.1074C313.379 84.1074 315.484 83.5311 317.234 82.3662C318.96 81.2136 320.059 79.5826 320.509 77.4735Z" fill="#9966FF"/>
<path d="M374.98 36.1492C379.899 30.2143 385.562 27.2836 391.982 27.3694C398.603 27.5411 403.509 30.0426 406.702 34.8862C409.894 39.7298 411.041 46.3024 410.142 54.604L403.32 97.0683H383.268L390.149 54.2974C390.315 52.8627 390.35 51.5139 390.268 50.2509C389.984 46.0694 387.749 43.9235 383.564 43.8009C379.946 43.7151 376.742 45.0884 373.94 47.9088L365.534 97.0683H345.482L361.75 0H381.802L374.98 36.1492Z" fill="#9966FF"/>
<path d="M418.005 87.4547C417.922 84.2542 418.974 81.5933 421.173 79.4965C423.372 77.3874 425.985 76.3328 429.035 76.3328C432.038 76.3328 434.604 77.2893 436.709 79.2144C438.825 81.1274 439.913 83.6289 439.995 86.7067C440.078 89.8704 439.038 92.5068 436.886 94.6404C434.734 96.774 432.098 97.8286 428.964 97.8286C425.879 97.8286 423.301 96.8599 421.22 94.9224C419.163 92.985 418.087 90.4958 418.005 87.4547Z" fill="#9966FF"/>
</svg>
